<svg width="72" height="72" viewBox="0 0 72 72" fill="none" xmlns="http://www.w3.org/2000/svg">
<rect x="2" y="2" width="68" height="68" rx="8" fill="#FDF4FF"/>
<path fill-rule="evenodd" clip-rule="evenodd" d="M36 11.5C36.4641 11.5 36.9092 11.6844 37.2374 12.0126C37.5656 12.3408 37.75 12.7859 37.75 13.25V18.5C37.75 18.9641 37.5656 19.4092 37.2374 19.7374C36.9092 20.0656 36.4641 20.25 36 20.25C35.5359 20.25 35.0908 20.0656 34.7626 19.7374C34.4344 19.4092 34.25 18.9641 34.25 18.5V13.25C34.25 12.7859 34.4344 12.3408 34.7626 12.0126C35.0908 11.6844 35.5359 11.5 36 11.5ZM21.1507 17.6507C21.4788 17.3229 21.9236 17.1389 22.3873 17.1389C22.8511 17.1389 23.2959 17.3229 23.624 17.6507L27.3387 21.363C27.6573 21.6932 27.8335 22.1353 27.8293 22.5942C27.8251 23.053 27.6408 23.4919 27.3162 23.8162C26.9916 24.1405 26.5526 24.3243 26.0937 24.3281C25.6349 24.3319 25.1929 24.1553 24.863 23.8363L21.1507 20.1263C20.988 19.9638 20.859 19.7708 20.771 19.5585C20.683 19.3461 20.6377 19.1184 20.6377 18.8885C20.6377 18.6586 20.683 18.4309 20.771 18.2185C20.859 18.0062 20.988 17.8132 21.1507 17.6507ZM50.8493 17.6507C51.1771 17.9788 51.3611 18.4236 51.3611 18.8873C51.3611 19.3511 51.1771 19.7959 50.8493 20.124L47.137 23.8387C46.8068 24.1573 46.3647 24.3335 45.9058 24.3293C45.447 24.3251 45.0081 24.1408 44.6838 23.8162C44.3595 23.4916 44.1757 23.0526 44.1719 22.5937C44.1681 22.1349 44.3447 21.6929 44.6637 21.363L48.3737 17.6507C48.5362 17.488 48.7292 17.359 48.9415 17.271C49.1539 17.183 49.3816 17.1377 49.6115 17.1377C49.8414 17.1377 50.0691 17.183 50.2815 17.271C50.4938 17.359 50.6868 17.488 50.8493 17.6507ZM34.9453 28.1413C35.3001 28.0462 35.6757 28.0651 36.0191 28.1954C36.3625 28.3256 36.6562 28.5606 36.8587 28.867L49.0573 47.34C49.2482 47.629 49.3491 47.9681 49.3472 48.3144C49.3452 48.6607 49.2406 48.9987 49.0464 49.2855C48.8523 49.5723 48.5775 49.7951 48.2567 49.9256C47.9359 50.0561 47.5836 50.0885 47.2443 50.0187L42.3513 49.0153L44.7897 58.1153C44.9097 58.564 44.8466 59.042 44.6143 59.4441C44.3819 59.8462 43.9993 60.1396 43.5507 60.2597C43.102 60.3797 42.624 60.3166 42.2219 60.0843C41.8198 59.8519 41.5264 59.4693 41.4063 59.0207L38.9703 49.923L35.2347 53.2363C34.9758 53.4665 34.6544 53.6147 34.3112 53.6621C33.968 53.7095 33.6185 53.654 33.3069 53.5026C32.9953 53.3512 32.7356 53.1106 32.5608 52.8115C32.386 52.5124 32.304 52.1681 32.325 51.8223L33.6527 29.7257C33.6744 29.359 33.8109 29.0084 34.0429 28.7237C34.2749 28.4389 34.5906 28.2343 34.9453 28.139V28.1413ZM15 32.5C15 32.0359 15.1844 31.5908 15.5126 31.2626C15.8408 30.9344 16.2859 30.75 16.75 30.75H22C22.4641 30.75 22.9092 30.9344 23.2374 31.2626C23.5656 31.5908 23.75 32.0359 23.75 32.5C23.75 32.9641 23.5656 33.4092 23.2374 33.7374C22.9092 34.0656 22.4641 34.25 22 34.25H16.75C16.2859 34.25 15.8408 34.0656 15.5126 33.7374C15.1844 33.4092 15 32.9641 15 32.5ZM48.25 32.5C48.25 32.0359 48.4344 31.5908 48.7626 31.2626C49.0907 30.9344 49.5359 30.75 50 30.75H55.25C55.7141 30.75 56.1592 30.9344 56.4874 31.2626C56.8156 31.5908 57 32.0359 57 32.5C57 32.9641 56.8156 33.4092 56.4874 33.7374C56.1592 34.0656 55.7141 34.25 55.25 34.25H50C49.5359 34.25 49.0907 34.0656 48.7626 33.7374C48.4344 33.4092 48.25 32.9641 48.25 32.5ZM27.3387 41.1613C27.5013 41.3238 27.6303 41.5168 27.7183 41.7292C27.8063 41.9416 27.8516 42.1693 27.8516 42.3992C27.8516 42.6291 27.8063 42.8567 27.7183 43.0691C27.6303 43.2815 27.5013 43.4745 27.3387 43.637L23.6263 47.3493C23.465 47.5166 23.2719 47.65 23.0585 47.7418C22.845 47.8336 22.6154 47.882 22.383 47.8841C22.1507 47.8862 21.9202 47.8421 21.7051 47.7542C21.49 47.6663 21.2945 47.5364 21.1302 47.3722C20.9658 47.208 20.8357 47.0126 20.7476 46.7976C20.6596 46.5826 20.6152 46.3522 20.6171 46.1198C20.619 45.8874 20.6671 45.6578 20.7588 45.4442C20.8504 45.2307 20.9836 45.0375 21.1507 44.876L24.863 41.1613C25.1911 40.8336 25.6359 40.6495 26.0997 40.6495C26.5634 40.6495 27.0082 40.8336 27.3363 41.1613H27.3387Z" fill="#D946EF"/>
<rect x="2" y="2" width="68" height="68" rx="8" stroke="#D946EF" stroke-width="4"/>
</svg>
