<svg width="36" height="36" viewBox="0 0 36 36" fill="none" xmlns="http://www.w3.org/2000/svg">
<path fill-rule="evenodd" clip-rule="evenodd" d="M0 6C0 4.4087 0.632141 2.88258 1.75736 1.75736C2.88258 0.632141 4.4087 0 6 0H30C31.5913 0 33.1174 0.632141 34.2426 1.75736C35.3679 2.88258 36 4.4087 36 6V30C36 31.5913 35.3679 33.1174 34.2426 34.2426C33.1174 35.3679 31.5913 36 30 36H6C4.4087 36 2.88258 35.3679 1.75736 34.2426C0.632141 33.1174 0 31.5913 0 30V6ZM28.5 18C28.4996 18.3977 28.3414 18.779 28.06 19.06L23.56 23.56C23.4227 23.7074 23.2571 23.8256 23.0731 23.9076C22.8891 23.9895 22.6905 24.0336 22.489 24.0372C22.2876 24.0407 22.0876 24.0037 21.9008 23.9282C21.714 23.8528 21.5444 23.7405 21.4019 23.5981C21.2595 23.4556 21.1472 23.286 21.0718 23.0992C20.9963 22.9124 20.9593 22.7124 20.9628 22.511C20.9664 22.3095 21.0105 22.1109 21.0924 21.9269C21.1744 21.7429 21.2926 21.5773 21.44 21.44L24.88 18L21.44 14.56C21.2926 14.4227 21.1744 14.2571 21.0924 14.0731C21.0105 13.8891 20.9664 13.6904 20.9628 13.489C20.9593 13.2876 20.9963 13.0876 21.0718 12.9008C21.1472 12.714 21.2595 12.5444 21.4019 12.4019C21.5444 12.2595 21.714 12.1472 21.9008 12.0718C22.0876 11.9963 22.2876 11.9593 22.489 11.9628C22.6905 11.9664 22.8891 12.0105 23.0731 12.0924C23.2571 12.1744 23.4227 12.2926 23.56 12.44L28.06 16.94C28.342 17.22 28.5 17.602 28.5 18ZM7.94 16.94C7.6591 17.2213 7.50132 17.6025 7.50132 18C7.50132 18.3975 7.6591 18.7787 7.94 19.06L12.44 23.56C12.5773 23.7074 12.7429 23.8256 12.9269 23.9076C13.1109 23.9895 13.3095 24.0336 13.511 24.0372C13.7124 24.0407 13.9124 24.0037 14.0992 23.9282C14.286 23.8528 14.4556 23.7405 14.5981 23.5981C14.7405 23.4556 14.8528 23.286 14.9282 23.0992C15.0037 22.9124 15.0407 22.7124 15.0372 22.511C15.0336 22.3095 14.9895 22.1109 14.9076 21.9269C14.8256 21.7429 14.7074 21.5773 14.56 21.44L11.12 18L14.56 14.56C14.7074 14.4227 14.8256 14.2571 14.9076 14.0731C14.9895 13.8891 15.0336 13.6904 15.0372 13.489C15.0407 13.2876 15.0037 13.0876 14.9282 12.9008C14.8528 12.714 14.7405 12.5444 14.5981 12.4019C14.4556 12.2595 14.286 12.1472 14.0992 12.0718C13.9124 11.9963 13.7124 11.9593 13.511 11.9628C13.3095 11.9664 13.1109 12.0105 12.9269 12.0924C12.7429 12.1744 12.5773 12.2926 12.44 12.44L7.94 16.94Z" fill="#D946EF"/>
<path d="M28.5 18C28.4996 18.3977 28.3414 18.779 28.06 19.06L23.56 23.56C23.4227 23.7074 23.2571 23.8256 23.0731 23.9076C22.8891 23.9895 22.6905 24.0336 22.489 24.0372C22.2876 24.0407 22.0876 24.0037 21.9008 23.9282C21.714 23.8528 21.5444 23.7405 21.4019 23.5981C21.2595 23.4556 21.1472 23.286 21.0718 23.0992C20.9963 22.9124 20.9593 22.7124 20.9628 22.511C20.9664 22.3095 21.0105 22.1109 21.0924 21.9269C21.1744 21.7429 21.2926 21.5773 21.44 21.44L24.88 18L21.44 14.56C21.2926 14.4227 21.1744 14.2571 21.0924 14.0731C21.0105 13.8891 20.9664 13.6904 20.9628 13.489C20.9593 13.2876 20.9963 13.0876 21.0718 12.9008C21.1472 12.714 21.2595 12.5444 21.4019 12.4019C21.5444 12.2595 21.714 12.1472 21.9008 12.0718C22.0876 11.9963 22.2876 11.9593 22.489 11.9628C22.6905 11.9664 22.8891 12.0105 23.0731 12.0924C23.2571 12.1744 23.4227 12.2926 23.56 12.44L28.06 16.94C28.342 17.22 28.5 17.602 28.5 18Z" fill="#FDF4FF"/>
<path d="M7.94 16.94C7.6591 17.2213 7.50132 17.6025 7.50132 18C7.50132 18.3975 7.6591 18.7787 7.94 19.06L12.44 23.56C12.5773 23.7074 12.7429 23.8256 12.9269 23.9076C13.1109 23.9895 13.3095 24.0336 13.511 24.0372C13.7124 24.0407 13.9124 24.0037 14.0992 23.9282C14.286 23.8528 14.4556 23.7405 14.5981 23.5981C14.7405 23.4556 14.8528 23.286 14.9282 23.0992C15.0037 22.9124 15.0407 22.7124 15.0372 22.511C15.0336 22.3095 14.9895 22.1109 14.9076 21.9269C14.8256 21.7429 14.7074 21.5773 14.56 21.44L11.12 18L14.56 14.56C14.7074 14.4227 14.8256 14.2571 14.9076 14.0731C14.9895 13.8891 15.0336 13.6904 15.0372 13.489C15.0407 13.2876 15.0037 13.0876 14.9282 12.9008C14.8528 12.714 14.7405 12.5444 14.5981 12.4019C14.4556 12.2595 14.286 12.1472 14.0992 12.0718C13.9124 11.9963 13.7124 11.9593 13.511 11.9628C13.3095 11.9664 13.1109 12.0105 12.9269 12.0924C12.7429 12.1744 12.5773 12.2926 12.44 12.44L7.94 16.94Z" fill="#FDF4FF"/>
</svg>
