<svg width="72" height="72" viewBox="0 0 72 72" fill="none" xmlns="http://www.w3.org/2000/svg">
<rect width="72" height="72" rx="10" fill="#D946EF"/>
<g clip-path="url(#clip0_88_5)">
<path fill-rule="evenodd" clip-rule="evenodd" d="M34.7576 16.5844L33.3907 28.2177C33.1737 30.0613 32.2332 31.7433 30.7762 32.8936L24.6205 37.7547C28.726 37.9462 32.705 39.2356 36.1425 41.4885C39.9992 44.0196 44.6316 45.0936 49.2086 44.518L49.8884 44.4311L41.8023 34.1891C40.6516 32.7324 40.1267 30.8783 40.3429 29.0346L41.7098 17.4013C39.4121 16.9819 37.09 16.7091 34.7576 16.5844ZM45.1483 18.1295C45.5928 18.1859 46.042 18.0695 46.4033 17.8045C46.7646 17.5395 47.0105 17.1461 47.0903 16.7052C47.1701 16.2643 47.0778 15.8095 46.8323 15.4347C46.5869 15.0599 46.207 14.7934 45.7709 14.6904C43.4281 14.1144 41.0516 13.6853 38.6552 13.4055C36.2592 13.1235 33.848 12.99 31.4355 13.0059C30.9875 13.0051 30.5562 13.1762 30.2305 13.484C29.9048 13.7917 29.7096 14.2126 29.685 14.66C29.6605 15.1074 29.8085 15.5472 30.0985 15.8887C30.3885 16.2303 30.7985 16.4475 31.244 16.4958L29.9146 27.8093C29.8055 28.7308 29.335 29.5713 28.6064 30.1459L12.3092 43.018C8.11362 46.3334 8.99806 53.1424 14.3893 54.7274C20.4885 56.5248 26.822 57.8281 33.3455 58.5947C39.8713 59.3614 46.3323 59.5591 52.6816 59.2291C58.2913 58.9344 60.7346 52.5164 57.4172 48.3182L44.5497 32.0216C44.2645 31.6609 44.0531 31.2475 43.9278 30.805C43.8024 30.3626 43.7654 29.8998 43.819 29.443L45.1483 18.1295Z" fill="#FDF4FF"/>
</g>
<defs>
<clipPath id="clip0_88_5">
<rect width="56" height="56" fill="white" transform="translate(11.459 4.92383) rotate(6.70156)"/>
</clipPath>
</defs>
</svg>
