<svg width="72" height="72" viewBox="0 0 72 72" fill="none" xmlns="http://www.w3.org/2000/svg">
<rect width="72" height="72" rx="16" fill="#EF4444"/>
<path d="M18.5007 22C18.5007 21.5359 18.6851 21.0908 19.0132 20.7626C19.3414 20.4344 19.7866 20.25 20.2507 20.25H23.7507V16.75C23.7507 16.2859 23.9351 15.8408 24.2632 15.5126C24.5914 15.1844 25.0366 15 25.5007 15C25.9648 15 26.4099 15.1844 26.7381 15.5126C27.0663 15.8408 27.2507 16.2859 27.2507 16.75V20.25H30.7507C31.2148 20.25 31.6599 20.4344 31.9881 20.7626C32.3163 21.0908 32.5007 21.5359 32.5007 22C32.5007 22.4641 32.3163 22.9092 31.9881 23.2374C31.6599 23.5656 31.2148 23.75 30.7507 23.75H27.2507V27.25C27.2507 27.7141 27.0663 28.1592 26.7381 28.4874C26.4099 28.8156 25.9648 29 25.5007 29C25.0366 29 24.5914 28.8156 24.2632 28.4874C23.9351 28.1592 23.7507 27.7141 23.7507 27.25V23.75H20.2507C19.7866 23.75 19.3414 23.5656 19.0132 23.2374C18.6851 22.9092 18.5007 22.4641 18.5007 22ZM48.2507 50H46.5007V48.25C46.5007 47.7859 46.3163 47.3408 45.9881 47.0126C45.6599 46.6844 45.2148 46.5 44.7507 46.5C44.2866 46.5 43.8414 46.6844 43.5132 47.0126C43.1851 47.3408 43.0007 47.7859 43.0007 48.25V50H41.2507C40.7866 50 40.3414 50.1844 40.0132 50.5126C39.6851 50.8408 39.5007 51.2859 39.5007 51.75C39.5007 52.2141 39.6851 52.6592 40.0132 52.9874C40.3414 53.3156 40.7866 53.5 41.2507 53.5H43.0007V55.25C43.0007 55.7141 43.1851 56.1592 43.5132 56.4874C43.8414 56.8156 44.2866 57 44.7507 57C45.2148 57 45.6599 56.8156 45.9881 56.4874C46.3163 56.1592 46.5007 55.7141 46.5007 55.25V53.5H48.2507C48.7148 53.5 49.1599 53.3156 49.4881 52.9874C49.8163 52.6592 50.0007 52.2141 50.0007 51.75C50.0007 51.2859 49.8163 50.8408 49.4881 50.5126C49.1599 50.1844 48.7148 50 48.2507 50ZM60.5007 39.5H57.0007V36C57.0007 35.5359 56.8163 35.0908 56.4881 34.7626C56.1599 34.4344 55.7148 34.25 55.2507 34.25C54.7866 34.25 54.3414 34.4344 54.0132 34.7626C53.6851 35.0908 53.5007 35.5359 53.5007 36V39.5H50.0007C49.5366 39.5 49.0914 39.6844 48.7632 40.0126C48.4351 40.3408 48.2507 40.7859 48.2507 41.25C48.2507 41.7141 48.4351 42.1592 48.7632 42.4874C49.0914 42.8156 49.5366 43 50.0007 43H53.5007V46.5C53.5007 46.9641 53.6851 47.4092 54.0132 47.7374C54.3414 48.0656 54.7866 48.25 55.2507 48.25C55.7148 48.25 56.1599 48.0656 56.4881 47.7374C56.8163 47.4092 57.0007 46.9641 57.0007 46.5V43H60.5007C60.9648 43 61.4099 42.8156 61.7381 42.4874C62.0663 42.1592 62.2507 41.7141 62.2507 41.25C62.2507 40.7859 62.0663 40.3408 61.7381 40.0126C61.4099 39.6844 60.9648 39.5 60.5007 39.5ZM55.9747 25.5L25.5007 55.9741C24.8444 56.6299 23.9545 56.9984 23.0266 56.9984C22.0988 56.9984 21.2089 56.6299 20.5526 55.9741L16.0244 51.4503C15.6993 51.1253 15.4415 50.7394 15.2655 50.3147C15.0896 49.89 14.999 49.4349 14.999 48.9752C14.999 48.5155 15.0896 48.0603 15.2655 47.6356C15.4415 47.2109 15.6993 46.825 16.0244 46.5L46.5007 16.0259C46.8257 15.7008 47.2116 15.443 47.6363 15.267C48.061 15.0911 48.5161 15.0005 48.9758 15.0005C49.4355 15.0005 49.8907 15.0911 50.3154 15.267C50.7401 15.443 51.126 15.7008 51.451 16.0259L55.9747 20.5497C56.2998 20.8747 56.5577 21.2606 56.7337 21.6853C56.9096 22.11 57.0002 22.5651 57.0002 23.0248C57.0002 23.4845 56.9096 23.9397 56.7337 24.3644C56.5577 24.7891 56.2998 25.175 55.9747 25.5ZM44.0244 32.5L39.5007 27.9741L18.5007 48.9741L23.0244 53.5L44.0244 32.5ZM53.5007 23.0259L48.9747 18.5L41.9747 25.5L46.5007 30.0259L53.5007 23.0259Z" fill="#FEF2F2"/>
</svg>
