<svg width="72" height="72" viewBox="0 0 72 72" fill="none" xmlns="http://www.w3.org/2000/svg">
<rect width="72" height="72" rx="16" fill="#10B981"/>
<path fill-rule="evenodd" clip-rule="evenodd" d="M33 19.596V29.636C32.9996 31.2272 32.3672 32.7531 31.242 33.878L26.488 38.632C30.0021 38.3843 33.5183 39.084 36.67 40.658C40.2063 42.4269 44.2572 42.8779 48.096 41.93L48.666 41.788L40.758 33.878C39.6327 32.7531 39.0003 31.2272 39 29.636V19.596C37.002 19.4688 34.9979 19.4688 33 19.596ZM42 19.872C42.384 19.8755 42.7547 19.7315 43.0358 19.4698C43.3169 19.2081 43.4868 18.8485 43.5107 18.4652C43.5345 18.0819 43.4104 17.704 43.164 17.4095C42.9175 17.1149 42.5675 16.9262 42.186 16.882C40.1339 16.626 38.0679 16.4985 36 16.5C33.932 16.4995 31.8661 16.6271 29.814 16.882C29.4324 16.9262 29.0824 17.1149 28.8359 17.4095C28.5895 17.704 28.4654 18.0819 28.4892 18.4652C28.5131 18.8485 28.683 19.2081 28.9641 19.4698C29.2452 19.7315 29.6159 19.8755 30 19.872V29.636C29.9993 30.4314 29.6827 31.1939 29.12 31.756L16.534 44.344C13.294 47.586 14.728 53.294 19.476 54.104C24.848 55.024 30.37 55.5 36 55.5C41.632 55.5 47.152 55.022 52.524 54.106C57.27 53.294 58.708 47.586 55.464 44.344L42.88 31.758C42.6011 31.4795 42.3798 31.1487 42.2288 30.7846C42.0778 30.4205 42 30.0302 42 29.636V19.872Z" fill="white"/>
</svg>
